HIERARCHY
ROOT Hips
{
	OFFSET 0.000000 0.000000 0.000000
	CHANNELS 6 Xposition Yposition Zposition Xrotation Yrotation Zrotation
	JOINT LeftUpLeg_virtual
	{
		OFFSET 0.000000 0.000000 0.000000
		CHANNELS 3 Xrotation Yrotation Zrotation
		JOINT LeftUpLeg
		{
			OFFSET 11.394100 -6.187798 -0.413800
			CHANNELS 3 Xrotation Yrotation Zrotation
			JOINT LeftLeg
			{
				OFFSET 0.430247 -32.302673 3.732800
				CHANNELS 3 Xrotation Yrotation Zrotation
				JOINT LeftFoot
				{
					OFFSET -0.430247 -48.264931 -6.423300
					CHANNELS 3 Xrotation Yrotation Zrotation
					JOINT LeftToeBase
					{
						OFFSET 4.230900 -16.068199 23.438400
						CHANNELS 3 Xrotation Yrotation Zrotation
						JOINT LeftToe_End
						{
							OFFSET 4.510700 0.695400 19.974600
							CHANNELS 3 Xrotation Yrotation Zrotation
							End Site
							{
								OFFSET 0 0 0
							}
						}
					}
				}
			}
		}
	}
	JOINT RightUpLeg_virtual
	{
		OFFSET 0.000000 0.000000 0.000000
		CHANNELS 3 Xrotation Yrotation Zrotation
		JOINT RightUpLeg
		{
			OFFSET -11.333700 -6.187798 -0.413800
			CHANNELS 3 Xrotation Yrotation Zrotation
			JOINT RightLeg
			{
				OFFSET -0.430392 -32.302628 3.733000
				CHANNELS 3 Xrotation Yrotation Zrotation
				JOINT RightFoot
				{
					OFFSET 0.430392 -48.264973 -6.423500
					CHANNELS 3 Xrotation Yrotation Zrotation
					JOINT RightToeBase
					{
						OFFSET -4.230900 -16.068199 23.438400
						CHANNELS 3 Xrotation Yrotation Zrotation
						JOINT RightToe_End
						{
							OFFSET -4.510700 0.695400 19.974600
							CHANNELS 3 Xrotation Yrotation Zrotation
							End Site
							{
								OFFSET 0 0 0
							}
						}
					}
				}
			}
		}
	}
	JOINT Spine_virtual
	{
		OFFSET 0.000000 0.000000 0.000000
		CHANNELS 3 Xrotation Yrotation Zrotation
		JOINT Spine
		{
			OFFSET -0.002400 12.777504 0.315300
			CHANNELS 3 Xrotation Yrotation Zrotation
			JOINT Spine1
			{
				OFFSET -0.002067 5.816869 0.032633
				CHANNELS 3 Xrotation Yrotation Zrotation
				JOINT Spine1_split
				{
					OFFSET -0.002067 5.816869 0.032633
					CHANNELS 3 Xrotation Yrotation Zrotation
					JOINT Spine2
					{
						OFFSET -0.002067 5.816869 0.032633
						CHANNELS 3 Xrotation Yrotation Zrotation
						JOINT Neck_virtual
						{
							OFFSET 0.000000 0.000000 0.000000
							CHANNELS 3 Xrotation Yrotation Zrotation
							JOINT Neck
							{
								OFFSET -0.003700 21.199493 -0.826900
								CHANNELS 3 Xrotation Yrotation Zrotation
								JOINT Head
								{
									OFFSET 0.000000 20.442200 4.834800
									CHANNELS 3 Xrotation Yrotation Zrotation
									JOINT HeadTop_End
									{
										OFFSET 0.000000 34.668396 4.968400
										CHANNELS 3 Xrotation Yrotation Zrotation
										End Site
										{
											OFFSET 0 0 0
										}
									}
								}
							}
						}
						JOINT LeftShoulder_virtual
						{
							OFFSET 0.000000 0.000000 0.000000
							CHANNELS 3 Xrotation Yrotation Zrotation
							JOINT LeftShoulder
							{
								OFFSET 3.288150 8.794197 -1.372250
								CHANNELS 3 Xrotation Yrotation Zrotation
								JOINT LeftShoulder_split
								{
									OFFSET 3.288150 8.794197 -1.372250
									CHANNELS 3 Xrotation Yrotation Zrotation
									JOINT LeftArm
									{
										OFFSET 11.953299 -2.279007 -0.146200
										CHANNELS 3 Xrotation Yrotation Zrotation
										JOINT LeftForeArm
										{
											OFFSET 18.448900 0.000000 0.000000
											CHANNELS 3 Xrotation Yrotation Zrotation
											JOINT LeftHand
											{
												OFFSET 29.527798 0.000000 0.000000
												CHANNELS 3 Xrotation Yrotation Zrotation
												End Site
												{
													OFFSET 0 0 0
												}
											}
										}
									}
								}
							}
						}
						JOINT RightShoulder_virtual
						{
							OFFSET 0.000000 0.000000 0.000000
							CHANNELS 3 Xrotation Yrotation Zrotation
							JOINT RightShoulder
							{
								OFFSET -3.249400 8.794197 -1.372250
								CHANNELS 3 Xrotation Yrotation Zrotation
								JOINT RightShoulder_split
								{
									OFFSET -3.249400 8.794197 -1.372250
									CHANNELS 3 Xrotation Yrotation Zrotation
									JOINT RightArm
									{
										OFFSET -11.953299 -2.279007 -0.146200
										CHANNELS 3 Xrotation Yrotation Zrotation
										JOINT RightForeArm
										{
											OFFSET -18.448900 0.000000 0.000000
											CHANNELS 3 Xrotation Yrotation Zrotation
											JOINT RightHand
											{
												OFFSET -29.527802 0.000000 0.000000
												CHANNELS 3 Xrotation Yrotation Zrotation
												End Site
												{
													OFFSET 0 0 0
												}
											}
										}
									}
								}
							}
						}
					}
				}
			}
		}
	}
}
MOTION
Frames: 10
Frame Time: 0.03333333
4.416120 74.580330 134.860626 0.000000 0.000000 0.000000 6.217753 12.206370 -0.149434 38.239425 48.183481 0.203658 19.199373 9.701473 -2.504657 -33.795865 21.838772 -19.244649 -20.554805 -6.942296 -13.718612 0.000000 0.000000 0.000000 7.394747 13.356636 -1.097481 -81.475148 9.962762 -0.717658 45.813784 -12.167979 3.523772 18.557107 5.135905 20.585249 11.105022 -4.721205 -46.985565 0.000000 0.000000 0.000000 4.135203 15.143931 0.709828 0.125372 -9.469079 2.294364 2.360590 -6.440455 -1.106678 0.270592 -0.798377 0.072917 0.000000 0.000000 0.000000 4.960984 -4.830449 1.484680 11.492080 32.021573 13.515717 4.338262 6.978404 1.678049 0.000000 0.000000 0.000000 3.749198 -5.700607 0.401473 1.903340 -13.467749 -11.430991 -2.087632 0.032608 -7.214700 -65.984620 -15.574254 -29.180416 -12.369295 -53.468169 8.460780 0.000000 0.000000 0.000000 3.018393 -6.917703 0.548489 -0.413528 1.695966 -12.829856 -9.280963 -7.933343 -5.962967 -47.648643 34.873658 51.510339 6.781180 1.226829 -3.043105 0.000000 0.000000 0.000000 
3.797887 74.417702 138.108078 0.000000 0.000000 0.000000 7.452922 5.675228 -1.432076 41.044799 51.203435 -1.704779 14.287693 10.526157 -3.420000 -27.849900 18.355954 -18.273181 -32.896107 -6.705261 -13.838765 0.000000 0.000000 0.000000 8.691522 5.846913 -2.236684 -81.100068 10.866959 4.167745 50.552989 -16.112829 5.714012 14.675112 1.033618 16.641631 14.474281 -6.893007 -46.716803 0.000000 0.000000 0.000000 5.256314 9.214751 -1.012901 0.364909 -10.295202 3.822010 2.881395 -9.466200 -0.452798 0.084642 -0.849217 0.032682 0.000000 0.000000 0.000000 5.452826 -7.818069 2.510150 5.545600 34.865196 13.588491 9.267558 15.379265 0.991507 0.000000 0.000000 0.000000 3.819310 -8.857839 0.765307 -0.162863 -21.938945 -15.168038 -1.653621 -0.580696 -5.325554 -57.503861 -25.360023 -28.671461 -6.721113 -38.318765 7.054649 0.000000 0.000000 0.000000 3.523592 -9.737307 1.761463 -0.529533 -2.949478 -5.938792 -6.485722 -6.646833 -5.926455 -33.475075 31.364437 40.503452 5.519752 -7.208442 -1.560460 0.000000 0.000000 0.000000 
3.373075 74.435524 141.240036 0.000000 0.000000 0.000000 9.170952 -1.473452 -2.759016 38.420873 53.072547 0.787437 13.778780 10.300305 -4.757296 -17.285880 15.330399 -17.692659 -42.167402 -5.314395 -15.924996 0.000000 0.000000 0.000000 9.960882 -1.330116 -3.260005 -81.563244 11.876282 8.012311 56.085914 -17.306608 7.502807 12.551052 -1.149878 14.510530 16.967653 -8.433867 -45.261761 0.000000 0.000000 0.000000 7.132400 3.894274 -2.660335 0.604546 -10.640431 5.322547 3.317974 -11.837309 0.117180 -0.034073 -0.772097 0.012938 0.000000 0.000000 0.000000 6.020622 -10.122970 3.357239 -1.226995 36.893554 14.322831 12.323186 21.631609 -0.448085 0.000000 0.000000 0.000000 3.754231 -11.264805 1.015767 -2.282833 -29.103334 -17.883515 -0.609883 -1.414957 -3.090766 -48.526650 -32.158405 -26.823449 -0.592793 -26.670272 5.243619 0.000000 0.000000 0.000000 3.758113 -11.867921 2.791931 -0.469170 -6.740027 -0.251271 -4.207776 -5.559677 -5.757436 -23.793423 26.482814 32.005846 3.870171 -7.883262 -1.053258 0.000000 0.000000 0.000000 
3.081620 74.532333 144.516571 0.000000 0.000000 0.000000 10.763813 -9.008033 -4.000227 30.414781 53.076331 7.994999 18.502699 9.443399 -6.610866 -5.764866 13.998661 -16.200577 -43.098958 -2.840836 -20.773419 0.000000 0.000000 0.000000 10.925288 -7.932295 -4.326180 -82.117834 12.904498 10.742143 60.205939 -15.801509 8.025143 12.488580 -0.827442 15.220670 17.509444 -8.887873 -42.893708 0.000000 0.000000 0.000000 9.469921 -1.586172 -4.129032 0.953612 -10.432598 6.613671 3.634185 -13.376546 0.572659 -0.056462 -0.541825 0.088773 0.000000 0.000000 0.000000 6.500104 -11.611293 3.876879 -8.165758 37.858731 15.515080 13.154868 25.837736 -1.944132 0.000000 0.000000 0.000000 3.436172 -12.802082 1.133875 -3.844271 -34.559873 -19.099506 1.168972 -1.927154 -0.982730 -42.742374 -35.480080 -26.259929 6.010613 -19.723416 3.672686 0.000000 0.000000 0.000000 3.627269 -13.131266 3.527323 -0.455470 -9.166587 3.967215 -1.934959 -4.773072 -5.426717 -18.366327 21.494844 25.138694 1.692190 -3.438601 -0.971757 0.000000 0.000000 0.000000 
2.963880 74.644814 147.816330 0.000000 0.000000 0.000000 11.883610 -16.355286 -5.150033 18.544189 50.504126 18.190911 27.430093 8.762802 -8.758989 2.325951 14.600494 -13.294777 -37.621276 -0.427165 -27.658911 0.000000 0.000000 0.000000 11.546080 -14.040977 -5.396407 -80.964229 13.747340 12.307075 61.132447 -13.471657 7.475372 12.309376 0.653998 16.839760 17.102421 -8.617096 -39.171633 0.000000 0.000000 0.000000 11.656627 -7.770429 -5.285112 1.442204 -9.683892 7.591147 3.796297 -14.100444 0.971544 0.013480 -0.201879 0.233204 0.000000 0.000000 0.000000 6.670808 -12.317333 4.046472 -14.415685 37.944754 16.731423 11.944400 28.220718 -3.068415 0.000000 0.000000 0.000000 2.857233 -13.517697 1.076076 -4.490842 -38.277978 -18.896200 2.798566 -1.643347 0.653660 -42.333652 -36.052785 -28.714986 12.979976 -16.562340 2.900021 0.000000 0.000000 0.000000 3.265129 -13.562946 3.999634 -0.646580 -10.089824 6.719825 0.035521 -4.702692 -4.708168 -16.050531 17.327539 18.950374 -0.777575 3.411317 -0.870451 0.000000 0.000000 0.000000 
2.997951 74.971268 151.469757 0.000000 0.000000 0.000000 12.453350 -22.197297 -6.313554 5.382039 43.972567 28.881011 39.149012 6.769800 -10.390422 6.711460 15.721333 -11.269635 -32.741946 1.407241 -33.821857 0.000000 0.000000 0.000000 11.965685 -19.774422 -6.343730 -77.085112 14.298399 12.709991 58.473072 -11.588990 6.377763 9.549087 1.836439 17.707614 17.827957 -8.196272 -33.572221 0.000000 0.000000 0.000000 13.044077 -14.419791 -6.029179 2.033982 -8.551552 8.195357 3.753803 -14.121876 1.346082 0.138969 0.187426 0.277721 0.000000 0.000000 0.000000 6.378804 -12.359723 3.899506 -19.038089 37.390607 17.416668 9.180082 29.017584 -3.661869 0.000000 0.000000 0.000000 2.192949 -13.560175 0.876364 -4.110494 -40.360582 -17.470169 4.232504 -0.866513 2.134433 -46.998627 -35.082741 -33.830938 19.451957 -15.177753 2.889121 0.000000 0.000000 0.000000 2.788247 -13.285456 4.290245 -1.003219 -9.906823 8.145842 1.826029 -5.312833 -3.691433 -15.990222 14.400904 13.311078 -3.295215 9.613706 -0.574189 0.000000 0.000000 0.000000 
2.974934 75.701729 155.620285 0.000000 0.000000 0.000000 12.398169 -26.335608 -7.301394 -6.023287 33.974802 36.940460 51.172064 3.416612 -10.610739 8.401034 15.791590 -10.440120 -32.798715 3.473747 -37.181829 0.000000 0.000000 0.000000 12.085905 -24.458049 -7.056859 -70.877904 14.468625 11.760537 54.247186 -10.163748 5.267597 4.850244 2.389438 17.559006 19.902632 -7.306525 -26.210859 0.000000 0.000000 0.000000 13.476575 -20.578966 -6.377142 2.674060 -7.308301 8.253749 3.504907 -13.664191 1.695445 0.218235 0.439121 0.280680 0.000000 0.000000 0.000000 5.540313 -11.902620 3.579117 -20.929972 36.813558 17.063925 5.824903 28.400864 -4.018815 0.000000 0.000000 0.000000 1.621715 -13.235707 0.601192 -2.779591 -40.868898 -14.936936 4.889208 0.097745 2.934744 -55.113790 -34.177420 -40.072194 24.101354 -13.197498 2.989867 0.000000 0.000000 0.000000 2.273709 -12.517870 4.495084 -1.333338 -9.016450 8.467963 3.520551 -6.131464 -2.831824 -18.557223 12.525991 8.667935 -5.463323 13.571529 -0.181452 0.000000 0.000000 0.000000 
2.693479 76.873466 160.096222 0.000000 0.000000 0.000000 11.819186 -29.188588 -7.801846 -15.944998 22.605466 41.844044 62.105380 0.007230 -9.370713 9.105440 14.807235 -10.158703 -36.220941 5.394964 -37.476654 0.000000 0.000000 0.000000 11.633157 -28.346634 -7.251455 -63.840665 14.168148 9.592837 50.330107 -8.726239 4.160136 0.327360 2.392542 17.682474 21.186864 -5.462160 -18.345246 0.000000 0.000000 0.000000 12.809634 -25.536295 -6.277033 3.168276 -6.203832 7.629646 3.080226 -12.976901 2.001960 0.181724 0.578424 0.126855 0.000000 0.000000 0.000000 4.165013 -11.139020 3.233089 -19.440725 36.587548 15.433856 2.684278 26.716860 -4.389187 0.000000 0.000000 0.000000 1.321634 -12.717338 0.323170 -0.667626 -39.891293 -11.359934 4.448035 0.652499 3.603163 -64.368570 -34.713641 -45.523037 26.176577 -11.251879 2.933598 0.000000 0.000000 0.000000 1.792979 -11.474155 4.740977 -1.562903 -7.909577 7.575714 4.965072 -6.689091 -2.769511 -24.674622 12.123800 5.639073 -6.993405 16.017014 0.181862 0.000000 0.000000 0.000000 
2.038417 78.384972 164.920288 0.000000 0.000000 0.000000 11.058646 -30.975458 -7.479656 -24.749249 11.847948 43.331605 70.478905 -2.555288 -6.798487 9.748476 14.274937 -10.610134 -36.097130 5.648629 -36.833824 0.000000 0.000000 0.000000 10.842952 -31.010790 -6.781051 -56.865054 13.560261 6.732050 47.201101 -6.589606 2.740673 -4.025997 1.966098 19.490116 18.944368 -2.893560 -11.745771 0.000000 0.000000 0.000000 11.283080 -29.109539 -5.840972 3.486693 -5.452855 6.320471 2.483554 -12.193068 2.201131 0.087546 0.611161 -0.073183 0.000000 0.000000 0.000000 2.450391 -10.197326 2.917551 -14.582396 36.652964 12.666825 0.323532 24.484697 -4.894482 0.000000 0.000000 0.000000 1.316697 -12.098990 0.151673 1.903264 -37.278797 -6.863051 3.384039 0.616089 3.848023 -73.323481 -38.212142 -49.470316 25.453181 -10.510047 2.707298 0.000000 0.000000 0.000000 1.335739 -10.319460 4.993880 -1.723609 -7.051216 5.226881 5.304498 -6.665277 -2.894820 -35.090616 13.637394 4.762623 -7.739870 18.706464 0.719298 0.000000 0.000000 0.000000 
1.127717 79.862030 169.907486 0.000000 0.000000 0.000000 10.443083 -31.994846 -6.215615 -32.899157 4.018374 41.883403 74.554786 -3.235793 -4.034107 9.121325 15.429367 -11.177557 -26.588890 3.257701 -37.230624 0.000000 0.000000 0.000000 10.073260 -32.301604 -5.622661 -49.993484 12.650293 3.434429 45.141280 -3.596183 0.972393 -8.874723 1.076816 22.727302 12.749177 -0.199105 -6.961384 0.000000 0.000000 0.000000 9.442401 -31.295865 -5.030909 3.545960 -5.061970 4.446169 1.801986 -11.370837 2.271434 -0.024965 0.634597 -0.168928 0.000000 0.000000 0.000000 0.523622 -9.149711 2.646064 -7.092182 36.633583 9.230149 -1.131714 21.981400 -5.478718 0.000000 0.000000 0.000000 1.560495 -11.366756 0.175460 4.465067 -32.858216 -1.715850 1.719746 0.115960 3.848590 -81.678735 -44.575286 -51.766431 22.432477 -12.224002 2.403800 0.000000 0.000000 0.000000 0.915531 -9.114052 5.195067 -1.988512 -6.524522 1.428354 4.978798 -6.079019 -3.281493 -49.487183 16.613356 6.416274 -7.917268 23.260027 1.756412 0.000000 0.000000 0.000000 
